<svg width="205" height="33" viewBox="0 0 205 33" fill="none" xmlns="http://www.w3.org/2000/svg">
<g clip-path="url(#clip0_25:253)">
<path fill-rule="evenodd" clip-rule="evenodd" d="M13.5961 21.8068V16.805H16.6169C17.371 16.805 18.2208 16.805 18.7869 17.2766C19.4476 17.7482 19.8246 18.598 19.8246 19.3532C19.8246 20.1084 19.5421 20.769 18.976 21.2407C18.4098 21.7123 17.5601 21.8068 16.8049 21.8068H13.5961V21.8068ZM13.5961 15.5782V11.1426H16.6169C17.2775 11.1426 17.8426 11.1426 18.4098 11.4262C19.0705 11.8033 19.4476 12.4639 19.4476 13.2191C19.4476 13.8798 19.0705 14.634 18.5978 15.0121C17.9372 15.5782 16.9939 15.5782 16.1442 15.5782H13.5961V15.5782ZM16.8994 23.1281C18.1262 23.1281 19.164 23.0336 20.1082 22.2784C21.0514 21.5242 21.4296 20.58 21.4296 19.4477C21.4296 17.7482 20.2973 16.4269 18.6924 16.0498C20.1082 15.6728 21.0514 14.5405 21.0514 13.1246C21.0514 11.9923 20.4853 11.0481 19.6366 10.4819C18.6924 9.91579 17.9372 9.82127 16.8994 9.82127H11.9922V23.1281H16.8994" fill="white"/>
<path fill-rule="evenodd" clip-rule="evenodd" d="M24.5439 18.1264C24.5439 17.2766 24.6384 16.3334 25.0155 15.6727C25.4871 14.823 26.3368 14.2569 27.2811 14.2569C28.1298 14.2569 28.9795 14.7285 29.4511 15.3892C29.9227 16.2389 30.0172 17.1821 30.0172 18.1264C30.0172 18.975 29.9227 19.8248 29.5456 20.6745C29.074 21.5242 28.3188 22.0904 27.2811 22.0904C26.3368 22.0904 25.4871 21.6177 25.11 20.8636C24.6384 20.0138 24.5439 18.975 24.5439 18.1264ZM22.8455 18.1264C22.8455 20.6745 24.1668 23.3172 27.092 23.3172C30.1118 23.3172 31.7157 20.8636 31.7157 18.1264C31.7157 15.5782 30.3008 13.0301 27.3756 13.0301C24.4493 13.0301 22.8455 15.3892 22.8455 18.1264" fill="white"/>
<path fill-rule="evenodd" clip-rule="evenodd" d="M34.8309 18.1264C34.8309 17.2766 34.9255 16.3334 35.3025 15.6727C35.6796 14.823 36.6239 14.2569 37.5671 14.2569C38.4168 14.2569 39.172 14.7285 39.6436 15.3892C40.2098 16.2389 40.3043 17.1821 40.3043 18.1264C40.3043 18.975 40.2098 19.8248 39.8327 20.6745C39.36 21.5242 38.5114 22.0904 37.5671 22.0904C36.6239 22.0904 35.7741 21.6177 35.3971 20.8636C34.9255 20.0138 34.8309 18.975 34.8309 18.1264V18.1264ZM33.1315 18.1264C33.1315 20.6745 34.4528 23.3172 37.3791 23.3172C40.3988 23.3172 41.9092 20.8636 41.9092 18.1264C41.9092 15.5782 40.4934 13.0301 37.6616 13.0301C34.7364 13.0301 33.1315 15.3892 33.1315 18.1264Z" fill="white"/>
<path fill-rule="evenodd" clip-rule="evenodd" d="M50.1187 14.1624L44.7399 21.9013H50.1187V23.1281H42.8524V21.9013L48.1378 14.4459H43.324V13.3126H50.1187V14.1624" fill="white"/>
<path d="M58.7075 27.4692H59.9343V6.98953H58.7075V27.4692Z" fill="white"/>
<path fill-rule="evenodd" clip-rule="evenodd" d="M74.657 17.9373H70.5984L72.5804 11.6142L74.657 17.9373ZM73.6182 9.82127H71.8252L67.4841 23.1281H68.9L70.1268 19.2586H75.034L76.3554 23.1281H77.9593L73.6182 9.82127" fill="white"/>
<path fill-rule="evenodd" clip-rule="evenodd" d="M89.1907 17.1821C89.1907 15.6727 90.323 14.1623 92.0214 14.1623C93.7208 14.1623 94.7586 15.5782 94.664 17.1821H89.1907ZM94.7586 20.2029C94.287 21.3352 93.3427 22.0904 92.1159 22.0904C91.0782 22.0904 89.9448 21.4297 89.4732 20.4854C89.0961 19.8248 89.0961 19.0696 89.0961 18.3154H96.2679C96.3625 15.5782 95.0422 13.0301 92.0214 13.0301C89.0961 13.0301 87.4912 15.4837 87.4912 18.2209C87.4912 20.9571 89.0016 23.3172 91.9268 23.3172C93.8143 23.3172 95.5138 22.1849 96.1744 20.3909L94.7586 20.2029" fill="white"/>
<path fill-rule="evenodd" clip-rule="evenodd" d="M99.8548 14.9176H99.9494C100.421 13.8798 101.648 13.0301 102.969 13.0301C104.196 13.0301 105.14 13.5017 105.801 14.5405C106.272 15.3892 106.178 16.7105 106.178 17.6548V23.1281H104.668V16.9941C104.668 16.4269 104.762 15.7662 104.48 15.2012C104.101 14.634 103.441 14.3514 102.78 14.3514C101.931 14.3514 101.271 14.7285 100.704 15.2946C100.137 16.0498 99.9494 16.9941 99.9494 17.9373V23.1281H98.439V13.3126H99.8548V14.9176" fill="white"/>
<path fill-rule="evenodd" clip-rule="evenodd" d="M190.266 14.9176C190.737 13.8798 191.964 13.0301 193.285 13.0301C194.512 13.0301 195.455 13.5017 196.117 14.5405C196.589 15.3892 196.589 16.7105 196.589 17.6548V23.1281H195.078V16.9941C195.078 16.4269 195.078 15.7662 194.796 15.2012C194.418 14.634 193.757 14.3514 193.096 14.3514C192.341 14.3514 191.587 14.7285 191.115 15.2946C190.455 16.0498 190.266 16.9941 190.266 17.9373V23.1281H188.755V13.3126H190.266V14.9176" fill="white"/>
<path d="M114.86 27.4692H116.087V6.98953H114.86V27.4692Z" fill="white"/>
<path fill-rule="evenodd" clip-rule="evenodd" d="M133.169 23.1281V16.7105H127.035V23.1281H125.524V9.82127H127.035V15.4837H133.169V9.82127H134.773V23.1281H133.169Z" fill="white"/>
<path fill-rule="evenodd" clip-rule="evenodd" d="M143.55 18.787C143.55 20.4854 142.324 22.0904 140.531 22.0904C139.303 22.0904 138.36 21.6177 138.36 20.3909C138.36 18.41 140.531 18.1264 142.324 18.1264H143.55V18.787ZM142.324 16.9941C141.097 16.9941 139.681 17.0876 138.642 17.5602C137.604 18.0318 136.849 19.1641 136.849 20.2964C136.849 22.2784 138.36 23.3172 140.247 23.3172C141.756 23.3172 142.89 22.6565 143.55 21.2406L143.738 23.1281H145.249C145.06 22.4675 144.966 21.7123 144.966 21.0516V17.1821C144.966 16.1444 144.966 14.823 144.211 13.9733C143.456 13.1246 142.324 13.0301 141.285 13.0301C139.492 13.0301 137.416 13.6907 137.133 15.7662L138.454 15.9553C138.737 14.634 139.964 14.2569 141.097 14.2569C142.795 14.2569 143.55 14.823 143.55 16.616V16.9941H142.324" fill="white"/>
<path fill-rule="evenodd" clip-rule="evenodd" d="M149.024 13.3126V15.0121C149.495 13.9733 150.629 13.0301 151.95 13.0301C153.365 13.0301 154.497 14.0678 154.686 15.2012C155.252 13.9733 156.385 13.0301 157.895 13.0301C158.933 13.0301 159.877 13.5962 160.349 14.446C160.82 15.2946 160.82 16.3334 160.82 17.2766V23.1281H159.311V17.2766C159.311 16.616 159.311 15.8608 159.027 15.2946C158.745 14.634 158.084 14.2569 157.423 14.2569C156.668 14.2569 155.913 14.7285 155.536 15.3892C154.97 16.1444 154.97 16.8996 154.97 17.8428V23.1281H153.459V16.8996C153.459 16.3334 153.459 15.6728 153.176 15.2012C152.799 14.634 152.138 14.2569 151.477 14.2569C150.817 14.2569 150.156 14.7285 149.684 15.2012C149.213 15.8608 149.118 16.7105 149.118 17.4657V23.1281H147.608V13.3126H149.024" fill="white"/>
<path fill-rule="evenodd" clip-rule="evenodd" d="M163.557 13.3126H165.068V23.1271H163.557V13.3126ZM163.463 9.82127H165.161V11.5197H163.463V9.82127Z" fill="white"/>
<path d="M168.182 23.1281H169.598V9.82127H168.182V23.1281Z" fill="white"/>
<path d="M79.4697 23.1281H80.8856V9.82127H79.4697V23.1281Z" fill="white"/>
<path d="M83.9999 23.1281H85.4157V9.82127H83.9999V23.1281Z" fill="white"/>
<path fill-rule="evenodd" clip-rule="evenodd" d="M177.241 23.1281L175.827 23.3172C173.655 23.3172 172.995 21.9958 172.995 20.1084V14.4459H171.296V13.2191H172.995V10.7655L174.505 10.671V13.2191H176.675V14.4459H174.505V20.2964C174.505 21.4297 174.882 22.0904 176.109 22.0904L177.241 21.9958V23.1281" fill="white"/>
<path fill-rule="evenodd" clip-rule="evenodd" d="M179.696 18.1264C179.696 17.2766 179.79 16.3334 180.168 15.6727C180.545 14.823 181.394 14.2569 182.338 14.2569C183.282 14.2569 184.037 14.7285 184.509 15.3892C185.075 16.2389 185.169 17.1821 185.169 18.1264C185.169 18.975 185.075 19.8248 184.698 20.6745C184.225 21.5242 183.376 22.0904 182.338 22.0904C181.489 22.0904 180.639 21.6177 180.262 20.8636C179.79 20.0138 179.696 18.975 179.696 18.1264V18.1264ZM177.997 18.1264C177.997 20.6745 179.318 23.3172 182.243 23.3172C185.264 23.3172 186.773 20.8636 186.773 18.1264C186.773 15.5782 185.358 13.0301 182.527 13.0301C179.507 13.0301 177.997 15.3892 177.997 18.1264Z" fill="white"/>
</g>
<defs>
<clipPath id="clip0_25:253">
<rect width="205" height="33" fill="white"/>
</clipPath>
</defs>
</svg>
