<svg width="165" height="15" viewBox="0 0 165 15" fill="none" xmlns="http://www.w3.org/2000/svg">
<path d="M7.398 9.104C6.942 9.296 6.48 9.422 6.012 9.482C5.544 9.542 5.076 9.59 4.608 9.626C3.78 9.686 3.132 9.872 2.664 10.184C2.208 10.496 1.98 10.97 1.98 11.606C1.98 11.894 2.034 12.146 2.142 12.362C2.262 12.566 2.412 12.74 2.592 12.884C2.784 13.016 3 13.118 3.24 13.19C3.492 13.25 3.744 13.28 3.996 13.28C4.428 13.28 4.848 13.226 5.256 13.118C5.664 13.01 6.024 12.848 6.336 12.632C6.66 12.404 6.918 12.122 7.11 11.786C7.302 11.438 7.398 11.03 7.398 10.562V9.104ZM5.58 8.564C5.784 8.54 6.024 8.504 6.3 8.456C6.588 8.408 6.822 8.342 7.002 8.258C7.182 8.174 7.29 8.036 7.326 7.844C7.374 7.64 7.398 7.454 7.398 7.286C7.398 6.734 7.218 6.284 6.858 5.936C6.51 5.576 5.916 5.396 5.076 5.396C4.704 5.396 4.362 5.432 4.05 5.504C3.738 5.564 3.462 5.678 3.222 5.846C2.994 6.002 2.802 6.218 2.646 6.494C2.502 6.758 2.406 7.094 2.358 7.502H1.26C1.296 6.95 1.422 6.482 1.638 6.098C1.854 5.702 2.13 5.384 2.466 5.144C2.814 4.892 3.21 4.712 3.654 4.604C4.11 4.484 4.59 4.424 5.094 4.424C5.562 4.424 6 4.478 6.408 4.586C6.828 4.682 7.188 4.844 7.488 5.072C7.8 5.288 8.04 5.582 8.208 5.954C8.388 6.326 8.478 6.782 8.478 7.322V12.398C8.478 12.818 8.55 13.088 8.694 13.208C8.85 13.316 9.156 13.286 9.612 13.118V13.964C9.528 13.988 9.402 14.024 9.234 14.072C9.078 14.12 8.922 14.144 8.766 14.144C8.598 14.144 8.436 14.126 8.28 14.09C8.1 14.066 7.956 14.012 7.848 13.928C7.74 13.832 7.65 13.724 7.578 13.604C7.518 13.472 7.476 13.334 7.452 13.19C7.428 13.034 7.416 12.872 7.416 12.704C6.96 13.208 6.438 13.592 5.85 13.856C5.262 14.12 4.626 14.252 3.942 14.252C3.534 14.252 3.138 14.198 2.754 14.09C2.382 13.982 2.052 13.814 1.764 13.586C1.476 13.358 1.248 13.082 1.08 12.758C0.912 12.422 0.828 12.026 0.828 11.57C0.828 9.986 1.914 9.05 4.086 8.762L5.58 8.564ZM12.0435 14V4.676H13.1235V14H12.0435ZM11.9895 2.642V1.04H13.1775V2.642H11.9895ZM17.4378 10.13C17.4858 10.706 17.6118 11.198 17.8158 11.606C18.0318 12.002 18.3018 12.326 18.6258 12.578C18.9618 12.83 19.3458 13.016 19.7778 13.136C20.2098 13.244 20.6718 13.298 21.1638 13.298C21.7398 13.298 22.2378 13.226 22.6578 13.082C23.0778 12.938 23.4198 12.746 23.6838 12.506C23.9478 12.254 24.1398 11.966 24.2598 11.642C24.3918 11.318 24.4578 10.976 24.4578 10.616C24.4578 10.112 24.3438 9.704 24.1158 9.392C23.8878 9.08 23.5878 8.828 23.2158 8.636C22.8558 8.432 22.4358 8.27 21.9558 8.15C21.4878 8.03 21.0018 7.916 20.4978 7.808C20.0058 7.688 19.5198 7.55 19.0398 7.394C18.5718 7.238 18.1518 7.028 17.7798 6.764C17.4198 6.5 17.1258 6.164 16.8978 5.756C16.6698 5.336 16.5558 4.808 16.5558 4.172C16.5558 3.728 16.6458 3.296 16.8258 2.876C17.0178 2.456 17.2938 2.084 17.6538 1.76C18.0258 1.436 18.4878 1.178 19.0398 0.985999C19.5918 0.793999 20.2278 0.698 20.9478 0.698C21.6798 0.698 22.3158 0.799999 22.8558 1.004C23.4078 1.208 23.8638 1.49 24.2238 1.85C24.5838 2.198 24.8538 2.606 25.0338 3.074C25.2138 3.542 25.3038 4.04 25.3038 4.568H24.1338C24.1338 4.076 24.0438 3.65 23.8638 3.29C23.6958 2.93 23.4618 2.636 23.1618 2.408C22.8618 2.18 22.5198 2.012 22.1358 1.904C21.7518 1.796 21.3558 1.742 20.9478 1.742C20.3238 1.742 19.7958 1.832 19.3638 2.012C18.9438 2.18 18.6078 2.402 18.3558 2.678C18.1038 2.954 17.9298 3.26 17.8338 3.596C17.7378 3.932 17.7198 4.268 17.7798 4.604C17.8518 5.024 18.0198 5.36 18.2838 5.612C18.5478 5.864 18.8718 6.074 19.2558 6.242C19.6398 6.398 20.0598 6.53 20.5158 6.638C20.9838 6.734 21.4578 6.842 21.9378 6.962C22.4178 7.07 22.8798 7.202 23.3238 7.358C23.7798 7.514 24.1818 7.724 24.5298 7.988C24.8778 8.252 25.1538 8.594 25.3578 9.014C25.5738 9.422 25.6818 9.938 25.6818 10.562C25.6818 11.762 25.2678 12.692 24.4398 13.352C23.6118 14.012 22.4478 14.342 20.9478 14.342C20.2758 14.342 19.6518 14.252 19.0758 14.072C18.4998 13.904 18.0018 13.646 17.5818 13.298C17.1618 12.938 16.8318 12.5 16.5918 11.984C16.3638 11.456 16.2498 10.838 16.2498 10.13H17.4378ZM29.3417 10.13C29.3897 10.706 29.5157 11.198 29.7197 11.606C29.9357 12.002 30.2057 12.326 30.5297 12.578C30.8657 12.83 31.2497 13.016 31.6817 13.136C32.1137 13.244 32.5757 13.298 33.0677 13.298C33.6437 13.298 34.1417 13.226 34.5617 13.082C34.9817 12.938 35.3237 12.746 35.5877 12.506C35.8517 12.254 36.0437 11.966 36.1637 11.642C36.2957 11.318 36.3617 10.976 36.3617 10.616C36.3617 10.112 36.2477 9.704 36.0197 9.392C35.7917 9.08 35.4917 8.828 35.1197 8.636C34.7597 8.432 34.3397 8.27 33.8597 8.15C33.3917 8.03 32.9057 7.916 32.4017 7.808C31.9097 7.688 31.4237 7.55 30.9437 7.394C30.4757 7.238 30.0557 7.028 29.6837 6.764C29.3237 6.5 29.0297 6.164 28.8017 5.756C28.5737 5.336 28.4597 4.808 28.4597 4.172C28.4597 3.728 28.5497 3.296 28.7297 2.876C28.9217 2.456 29.1977 2.084 29.5577 1.76C29.9297 1.436 30.3917 1.178 30.9437 0.985999C31.4957 0.793999 32.1317 0.698 32.8517 0.698C33.5837 0.698 34.2197 0.799999 34.7597 1.004C35.3117 1.208 35.7677 1.49 36.1277 1.85C36.4877 2.198 36.7577 2.606 36.9377 3.074C37.1177 3.542 37.2077 4.04 37.2077 4.568H36.0377C36.0377 4.076 35.9477 3.65 35.7677 3.29C35.5997 2.93 35.3657 2.636 35.0657 2.408C34.7657 2.18 34.4237 2.012 34.0397 1.904C33.6557 1.796 33.2597 1.742 32.8517 1.742C32.2277 1.742 31.6997 1.832 31.2677 2.012C30.8477 2.18 30.5117 2.402 30.2597 2.678C30.0077 2.954 29.8337 3.26 29.7377 3.596C29.6417 3.932 29.6237 4.268 29.6837 4.604C29.7557 5.024 29.9237 5.36 30.1877 5.612C30.4517 5.864 30.7757 6.074 31.1597 6.242C31.5437 6.398 31.9637 6.53 32.4197 6.638C32.8877 6.734 33.3617 6.842 33.8417 6.962C34.3217 7.07 34.7837 7.202 35.2277 7.358C35.6837 7.514 36.0857 7.724 36.4337 7.988C36.7817 8.252 37.0577 8.594 37.2617 9.014C37.4777 9.422 37.5857 9.938 37.5857 10.562C37.5857 11.762 37.1717 12.692 36.3437 13.352C35.5157 14.012 34.3517 14.342 32.8517 14.342C32.1797 14.342 31.5557 14.252 30.9797 14.072C30.4037 13.904 29.9057 13.646 29.4857 13.298C29.0657 12.938 28.7357 12.5 28.4957 11.984C28.2677 11.456 28.1537 10.838 28.1537 10.13H29.3417ZM40.7416 14V1.04H49.3636V2.084H41.9656V6.764H48.6436V7.808H41.9656V12.956H49.5436V14H40.7416ZM52.5915 14V1.04H54.4635L58.7115 12.47H58.7475L62.9235 1.04H64.7775V14H63.5535V2.444H63.5175L59.2695 14H58.1175L53.8515 2.444H53.8155V14H52.5915ZM69.7636 12.956H72.8776C73.5496 12.956 74.1316 12.926 74.6236 12.866C75.1276 12.806 75.5416 12.686 75.8656 12.506C76.1896 12.314 76.4296 12.05 76.5856 11.714C76.7536 11.366 76.8376 10.91 76.8376 10.346C76.8376 9.806 76.7476 9.374 76.5676 9.05C76.3876 8.714 76.1296 8.456 75.7936 8.276C75.4576 8.096 75.0556 7.976 74.5876 7.916C74.1196 7.844 73.5976 7.808 73.0216 7.808H69.7636V12.956ZM69.7636 6.764H72.8596C73.4956 6.764 74.0296 6.71 74.4616 6.602C74.8936 6.494 75.2416 6.338 75.5056 6.134C75.7696 5.918 75.9556 5.66 76.0636 5.36C76.1836 5.048 76.2436 4.694 76.2436 4.298C76.2436 3.89 76.1776 3.548 76.0456 3.272C75.9136 2.984 75.7036 2.756 75.4156 2.588C75.1276 2.408 74.7496 2.282 74.2816 2.21C73.8256 2.126 73.2616 2.084 72.5896 2.084H69.7636V6.764ZM68.5396 14V1.04H73.2196C73.9756 1.04 74.6236 1.118 75.1636 1.274C75.7036 1.43 76.1416 1.652 76.4776 1.94C76.8256 2.228 77.0776 2.576 77.2336 2.984C77.3896 3.38 77.4676 3.818 77.4676 4.298C77.4676 4.754 77.4076 5.15 77.2876 5.486C77.1676 5.81 77.0116 6.086 76.8196 6.314C76.6276 6.53 76.4056 6.704 76.1536 6.836C75.9136 6.956 75.6616 7.04 75.3976 7.088V7.124C76.2976 7.256 76.9636 7.61 77.3956 8.186C77.8396 8.762 78.0616 9.482 78.0616 10.346C78.0616 11.018 77.9536 11.588 77.7376 12.056C77.5336 12.524 77.2456 12.902 76.8736 13.19C76.5016 13.478 76.0516 13.688 75.5236 13.82C75.0076 13.94 74.4436 14 73.8316 14H68.5396ZM81.4455 14V1.04H82.6695V12.956H89.6175V14H81.4455ZM92.3475 14V1.04H100.969V2.084H93.5715V6.764H100.249V7.808H93.5715V12.956H101.149V14H92.3475Z" fill="white"/>
<path d="M111.802 3.29492V11.75H114.298C115.576 11.75 116.466 11.1201 116.97 9.86035C117.246 9.16895 117.383 8.3457 117.383 7.39062C117.383 6.07227 117.175 5.06152 116.759 4.3584C116.349 3.64941 115.529 3.29492 114.298 3.29492H111.802ZM114.755 1.04492C115.558 1.05664 116.226 1.15039 116.759 1.32617C117.667 1.625 118.403 2.17285 118.965 2.96973C119.416 3.61426 119.724 4.31152 119.888 5.06152C120.052 5.81152 120.134 6.52637 120.134 7.20605C120.134 8.92871 119.788 10.3877 119.097 11.583C118.16 13.1943 116.712 14 114.755 14H109.174V1.04492H114.755ZM129.713 12.0664C130.785 12.0664 131.634 11.6709 132.261 10.8799C132.894 10.0889 133.211 8.96387 133.211 7.50488C133.211 6.05176 132.894 4.92969 132.261 4.13867C131.634 3.3418 130.785 2.94336 129.713 2.94336C128.64 2.94336 127.785 3.33887 127.146 4.12988C126.507 4.9209 126.188 6.0459 126.188 7.50488C126.188 8.96387 126.507 10.0889 127.146 10.8799C127.785 11.6709 128.64 12.0664 129.713 12.0664ZM135.918 7.50488C135.918 9.83105 135.264 11.6123 133.958 12.8486C132.979 13.8564 131.564 14.3604 129.713 14.3604C127.861 14.3604 126.446 13.8564 125.467 12.8486C124.155 11.6123 123.499 9.83105 123.499 7.50488C123.499 5.13184 124.155 3.35059 125.467 2.16113C126.446 1.15332 127.861 0.649414 129.713 0.649414C131.564 0.649414 132.979 1.15332 133.958 2.16113C135.264 3.35059 135.918 5.13184 135.918 7.50488ZM139.229 7.62793C139.229 5.36621 139.836 3.62305 141.049 2.39844C142.103 1.33203 143.445 0.798828 145.074 0.798828C147.254 0.798828 148.847 1.51367 149.855 2.94336C150.412 3.74609 150.711 4.55176 150.752 5.36035H148.045C147.869 4.73926 147.643 4.27051 147.368 3.9541C146.876 3.3916 146.146 3.11035 145.179 3.11035C144.195 3.11035 143.419 3.50879 142.85 4.30566C142.282 5.09668 141.998 6.21875 141.998 7.67188C141.998 9.125 142.297 10.2148 142.894 10.9414C143.498 11.6621 144.262 12.0225 145.188 12.0225C146.137 12.0225 146.861 11.7119 147.359 11.0908C147.635 10.7568 147.863 10.2559 148.045 9.58789H150.725C150.491 11 149.89 12.1484 148.924 13.0332C147.963 13.918 146.729 14.3604 145.223 14.3604C143.36 14.3604 141.895 13.7627 140.829 12.5674C139.762 11.3662 139.229 9.71973 139.229 7.62793ZM156.56 10.001C156.642 10.5928 156.803 11.0352 157.043 11.3281C157.482 11.8613 158.235 12.1279 159.302 12.1279C159.94 12.1279 160.459 12.0576 160.857 11.917C161.613 11.6475 161.991 11.1465 161.991 10.4141C161.991 9.98633 161.804 9.65527 161.429 9.4209C161.054 9.19238 160.465 8.99023 159.662 8.81445L158.291 8.50684C156.943 8.20215 156.012 7.87109 155.496 7.51367C154.623 6.91602 154.187 5.98145 154.187 4.70996C154.187 3.5498 154.608 2.58594 155.452 1.81836C156.296 1.05078 157.535 0.666992 159.17 0.666992C160.535 0.666992 161.698 1.03027 162.659 1.75684C163.626 2.47754 164.133 3.52637 164.18 4.90332H161.578C161.531 4.12402 161.191 3.57031 160.559 3.24219C160.137 3.02539 159.612 2.91699 158.985 2.91699C158.288 2.91699 157.731 3.05762 157.315 3.33887C156.899 3.62012 156.691 4.0127 156.691 4.5166C156.691 4.97949 156.896 5.3252 157.307 5.55371C157.57 5.70605 158.133 5.88477 158.994 6.08984L161.227 6.62598C162.205 6.86035 162.943 7.17383 163.441 7.56641C164.215 8.17578 164.602 9.05762 164.602 10.2119C164.602 11.3955 164.147 12.3799 163.239 13.165C162.337 13.9443 161.06 14.334 159.407 14.334C157.72 14.334 156.393 13.9502 155.426 13.1826C154.459 12.4092 153.976 11.3486 153.976 10.001H156.56Z" fill="#BEBEBE"/>
</svg>
